# xmcd
#
# Track frame offsets: 
#        150
#        34798
#        54945
#        74033
#        109149
#        143102
#        161926
#        178939
#        200077
#        211548
#        234901
#        255806
#        277078
#
# Disc length: 4015 seconds
#
# Revision: 1
# Processed by: cddbd v1.5.2PL0 Copyright (c) Steve Scherf et al.
# Submitted via: ExactAudioCopy v0.95b3
#
DISCID=bf0fad0d
DTITLE=Gov't Mule - Mighty High
DYEAR=2007
DGENRE=Rock
TTITLE0=I'm A Ram (Original Mix)
TTITLE1=Rebel With A Cause
TTITLE2=Horseflies
TTITLE3=The Shape I'm In
TTITLE4=Play With Fire
TTITLE5=Hard To Handle
TTITLE6=Hard To Dubya
TTITLE7=Unblow Your Horn
TTITLE8=Unthrow That Spear
TTITLE9=So Ram, So Rong
TTITLE10=Outta Shape
TTITLE11=Reblow Your Mind
TTITLE12=Plasticene Era
EXTD=
EXTT0=
EXTT1=
EXTT2=
EXTT3=
EXTT4=
EXTT5=
EXTT6=
EXTT7=
EXTT8=
EXTT9=
EXTT10=
EXTT11=
EXTT12=
PLAYORDER=
